<svg id="Capa_1" data-name="Capa 1" xmlns="http://www.w3.org/2000/svg" xmlns:xlink="http://www.w3.org/1999/xlink" viewBox="0 0 1663.21 1000"><defs><style>.cls-1{fill-opacity:0.6;fill:url(#Degradado_sin_nombre);}.cls-10,.cls-11,.cls-2,.cls-3,.cls-4,.cls-5,.cls-6,.cls-7,.cls-8,.cls-9{fill:none;stroke-linecap:round;}.cls-2,.cls-3,.cls-4,.cls-5,.cls-6{stroke-width:1.71px;}.cls-2{stroke:url(#Degradado_sin_nombre_2);}.cls-3{stroke:url(#Degradado_sin_nombre_3);}.cls-4{stroke:url(#Degradado_sin_nombre_4);}.cls-5{stroke:url(#Degradado_sin_nombre_5);}.cls-6{stroke:url(#Degradado_sin_nombre_6);}.cls-10,.cls-11,.cls-7,.cls-8,.cls-9{stroke-width:2.97px;}.cls-7{stroke:url(#Degradado_sin_nombre_7);}.cls-8{stroke:url(#Degradado_sin_nombre_8);}.cls-9{stroke:url(#Degradado_sin_nombre_9);}.cls-10{stroke:url(#Degradado_sin_nombre_10);}.cls-11{stroke:url(#Degradado_sin_nombre_11);}</style><radialGradient id="Degradado_sin_nombre" cx="538.19" cy="938.05" r="1" gradientTransform="matrix(8, 594, 594, -8, -560686.54, -311593.4)" gradientUnits="userSpaceOnUse"><stop offset="0" stop-color="#2954a3"/><stop offset="1" stop-color="#0f103f"/></radialGradient><radialGradient id="Degradado_sin_nombre_2" cx="537.9" cy="940.02" r="1" gradientTransform="matrix(508.77, 0, 0, -237.9, -272772.77, 224186.01)" gradientUnits="userSpaceOnUse"><stop offset="0.46" stop-color="#fff"/><stop offset="0.72" stop-color="#fff" stop-opacity="0"/><stop offset="0.78" stop-color="#fff" stop-opacity="0"/><stop offset="1" stop-color="#fff" stop-opacity="0.4"/></radialGradient><radialGradient id="Degradado_sin_nombre_3" cx="537.9" cy="940.02" r="1" gradientTransform="matrix(508.77, 0, 0, -237.9, -272772.77, 224188.55)" xlink:href="#Degradado_sin_nombre_2"/><radialGradient id="Degradado_sin_nombre_4" cx="537.9" cy="940.02" r="1" gradientTransform="matrix(508.77, 0, 0, -237.01, -272772.77, 223357.83)" xlink:href="#Degradado_sin_nombre_2"/><radialGradient id="Degradado_sin_nombre_5" cx="537.9" cy="940.03" r="1" gradientTransform="matrix(508.77, 0, 0, -236.29, -272772.77, 222684.26)" xlink:href="#Degradado_sin_nombre_2"/><radialGradient id="Degradado_sin_nombre_6" cx="537.9" cy="940.03" r="1" gradientTransform="matrix(508.77, 0, 0, -235.04, -272772.77, 221521.66)" xlink:href="#Degradado_sin_nombre_2"/><radialGradient id="Degradado_sin_nombre_7" cx="538.25" cy="939.47" r="1" gradientTransform="matrix(884.49, 0, 0, -413.6, -475200.74, 389124.52)" xlink:href="#Degradado_sin_nombre_2"/><radialGradient id="Degradado_sin_nombre_8" cx="538.25" cy="939.47" r="1" gradientTransform="matrix(884.49, 0, 0, -413.6, -475200.74, 389127.3)" xlink:href="#Degradado_sin_nombre_2"/><radialGradient id="Degradado_sin_nombre_9" cx="538.25" cy="939.48" r="1" gradientTransform="matrix(884.49, 0, 0, -412.05, -475200.74, 387683.36)" xlink:href="#Degradado_sin_nombre_2"/><radialGradient id="Degradado_sin_nombre_10" cx="538.25" cy="939.48" r="1" gradientTransform="matrix(884.49, 0, 0, -410.79, -475200.74, 386513.69)" xlink:href="#Degradado_sin_nombre_2"/><radialGradient id="Degradado_sin_nombre_11" cx="538.25" cy="939.48" r="1" gradientTransform="matrix(884.49, 0, 0, -408.62, -475200.74, 384491.92)" xlink:href="#Degradado_sin_nombre_2"/></defs><circle class="cls-1" cx="857.49" cy="500" r="500"/><path class="cls-2" d="M771.78,309.9C563.33,334.28,408.71,423.75,408.71,530.4c0,125.41,213.78,227.07,477.5,227.07S1363.7,655.81,1363.7,530.4c0-110.1-164.79-201.89-383.47-222.66" transform="translate(-28.23 -42.74)"/><path class="cls-3" d="M771.78,311.5C563.33,335.88,408.71,425.35,408.71,532c0,125.41,213.78,227.07,477.5,227.07S1363.7,657.41,1363.7,532c0-110.1-164.79-201.89-383.47-222.66" transform="translate(-28.23 -42.74)"/><path class="cls-4" d="M996.46,315C1207,338.69,1363.7,428.64,1363.7,536c0,125.41-213.79,227.07-477.49,227.07S408.71,661.41,408.71,536c0-104.89,149.57-193.17,352.82-219.25" transform="translate(-28.23 -42.74)"/><path class="cls-5" d="M745.3,325.38C550.37,354,408.71,440.32,408.71,542.4c0,125.4,213.78,227.07,477.5,227.07S1363.7,667.8,1363.7,542.4c0-105.39-151-194-355.71-219.61" transform="translate(-28.23 -42.74)"/><path class="cls-6" d="M1025.5,333.94c195.76,28.35,338.2,114.89,338.2,217.26,0,125.4-213.79,227.06-477.49,227.06S408.71,676.6,408.71,551.2c0-99,133.23-183.2,319.08-214.28" transform="translate(-28.23 -42.74)"/><path class="cls-7" d="M660.91,140.5c-362.4,42.38-631.2,197.93-631.2,383.34,0,218,371.66,394.75,830.12,394.75S1690,741.86,1690,523.84c0-191.41-286.48-351-666.66-387.1" transform="translate(-28.23 -42.74)"/><path class="cls-8" d="M660.91,143.28c-362.4,42.38-631.2,197.93-631.2,383.34,0,218,371.66,394.75,830.12,394.75S1690,744.64,1690,526.62c0-191.41-286.48-351-666.66-387.1" transform="translate(-28.23 -42.74)"/><path class="cls-9" d="M1051.51,149.4c366,41.14,638.44,197.53,638.44,384.17,0,218-371.66,394.76-830.12,394.76S29.71,751.59,29.71,533.57c0-182.35,260-335.83,613.38-381.16" transform="translate(-28.23 -42.74)"/><path class="cls-10" d="M614.87,167.41C276,217.11,29.71,367.23,29.71,544.69c0,218,371.66,394.76,830.12,394.76S1690,762.71,1690,544.69c0-183.22-262.49-337.28-618.39-381.79" transform="translate(-28.23 -42.74)"/><path class="cls-11" d="M1102,182.3C1442.33,231.58,1690,382,1690,560c0,218-371.66,394.75-830.12,394.75S29.71,778,29.71,560c0-172.11,231.62-318.49,554.71-372.51" transform="translate(-28.23 -42.74)"/></svg>