<svg id="Capa_1" data-name="Capa 1" xmlns="http://www.w3.org/2000/svg" xmlns:xlink="http://www.w3.org/1999/xlink" viewBox="0 0 953.58 849.34"><defs><style>.cls-1{fill:#fff;}.cls-1,.cls-7{fill-rule:evenodd;}.cls-2{fill:url(#Degradado_sin_nombre);}.cls-3{fill:url(#Degradado_sin_nombre_2);}.cls-4{fill:url(#Degradado_sin_nombre_3);}.cls-5{fill:url(#Degradado_sin_nombre_4);}.cls-13,.cls-14,.cls-15,.cls-16,.cls-17,.cls-6{fill:none;}.cls-16,.cls-6{stroke-opacity:0.2;}.cls-6{stroke-width:0.72px;stroke:url(#Degradado_sin_nombre_5);}.cls-7{fill:url(#Degradado_sin_nombre_6);}.cls-8{mask:url(#mask);}.cls-9{fill-opacity:0.3;fill:url(#Degradado_sin_nombre_7);}.cls-10,.cls-25,.cls-28,.cls-35,.cls-38,.cls-43,.cls-44,.cls-48,.cls-49,.cls-61{fill-opacity:0.6;}.cls-10{fill:url(#Degradado_sin_nombre_8);}.cls-11,.cls-41,.cls-45{fill-opacity:0.8;}.cls-11{fill:url(#Degradado_sin_nombre_9);}.cls-12{fill:url(#Degradado_sin_nombre_10);}.cls-13,.cls-15,.cls-16,.cls-17{stroke-width:1.2px;}.cls-13{stroke:url(#Degradado_sin_nombre_11);}.cls-14{stroke-width:0.24px;stroke:url(#Degradado_sin_nombre_12);}.cls-15{stroke:url(#Degradado_sin_nombre_13);}.cls-16{stroke:url(#Degradado_sin_nombre_14);}.cls-17{stroke:url(#Degradado_sin_nombre_15);}.cls-18,.cls-19{fill:#00f0ff;}.cls-18,.cls-20,.cls-22,.cls-24,.cls-27,.cls-29,.cls-53,.cls-54,.cls-57,.cls-58{fill-opacity:0.5;}.cls-20{fill:#0500ff;}.cls-21{fill:#3dfffb;}.cls-22{fill:#06f;}.cls-23,.cls-28{fill:#00d1ff;}.cls-24{fill:#001aff;}.cls-25,.cls-26,.cls-27{fill:#00fff0;}.cls-29{fill:#6100ff;}.cls-30{opacity:0.5;}.cls-31{fill:url(#Degradado_sin_nombre_16);}.cls-32{fill:url(#Degradado_sin_nombre_17);}.cls-33{fill:url(#Degradado_sin_nombre_18);}.cls-34{fill:url(#Degradado_sin_nombre_19);}.cls-35{fill:url(#Degradado_sin_nombre_20);}.cls-36{fill:url(#Degradado_sin_nombre_21);}.cls-37{fill:url(#Degradado_sin_nombre_22);}.cls-38{fill:url(#Degradado_sin_nombre_23);}.cls-39{fill:url(#Degradado_sin_nombre_24);}.cls-40{fill-opacity:0.7;fill:url(#Degradado_sin_nombre_25);}.cls-41{fill:url(#Degradado_sin_nombre_26);}.cls-42{fill:url(#Degradado_sin_nombre_27);}.cls-43{fill:url(#Degradado_sin_nombre_28);}.cls-44{fill:url(#Degradado_sin_nombre_29);}.cls-45{fill:url(#Degradado_sin_nombre_30);}.cls-46{fill:url(#Degradado_sin_nombre_31);}.cls-47{fill:url(#Degradado_sin_nombre_32);}.cls-48{fill:url(#Degradado_sin_nombre_33);}.cls-49{fill:url(#Degradado_sin_nombre_34);}.cls-50{fill:url(#Degradado_sin_nombre_35);}.cls-51{fill:url(#Degradado_sin_nombre_36);}.cls-52{fill:url(#Degradado_sin_nombre_37);}.cls-53{fill:url(#Degradado_sin_nombre_38);}.cls-54{fill:url(#Degradado_sin_nombre_39);}.cls-55{fill:url(#Degradado_sin_nombre_40);}.cls-56,.cls-62,.cls-63{fill-opacity:0.9;}.cls-56{fill:url(#Degradado_sin_nombre_41);}.cls-57{fill:url(#Degradado_sin_nombre_42);}.cls-58{fill:url(#Degradado_sin_nombre_43);}.cls-59{fill:url(#Degradado_sin_nombre_44);}.cls-60{fill:url(#Degradado_sin_nombre_45);}.cls-61{fill:url(#Degradado_sin_nombre_46);}.cls-62{fill:url(#Degradado_sin_nombre_47);}.cls-63{fill:url(#Degradado_sin_nombre_48);}</style><radialGradient id="Degradado_sin_nombre" cx="273.08" cy="693.59" r="1" gradientTransform="matrix(158, 378, 378, -158, -304825.71, 6642.8)" gradientUnits="userSpaceOnUse"><stop offset="0" stop-color="#2f2f8a"/><stop offset="1" stop-color="#2f2f8a" stop-opacity="0"/></radialGradient><linearGradient id="Degradado_sin_nombre_2" x1="612.23" y1="290.5" x2="486.86" y2="90.66" gradientTransform="matrix(1, 0, 0, -1, 0, 596.32)" gradientUnits="userSpaceOnUse"><stop offset="0" stop-color="#fff"/><stop offset="0.17" stop-color="#71fff6"/><stop offset="0.55" stop-color="#4f75ff"/><stop offset="1" stop-color="#5e64ff" stop-opacity="0"/></linearGradient><radialGradient id="Degradado_sin_nombre_3" cx="276.14" cy="696.74" r="1" gradientTransform="matrix(32.7, -153.57, -183.29, -39.03, 119197.09, 70090.27)" gradientUnits="userSpaceOnUse"><stop offset="0.41" stop-color="#3330b1" stop-opacity="0.1"/><stop offset="0.68" stop-color="#58ffff" stop-opacity="0.5"/><stop offset="1" stop-color="#fff"/></radialGradient><radialGradient id="Degradado_sin_nombre_4" cx="273.88" cy="692.54" r="1" gradientTransform="matrix(-109.76, 166.95, 285.97, 188.01, -167471.63, -175589.81)" gradientUnits="userSpaceOnUse"><stop offset="0" stop-color="#fff"/><stop offset="0.3" stop-color="#5ef5ff"/><stop offset="0.54" stop-color="#3432bd"/><stop offset="0.91" stop-color="#171940"/></radialGradient><linearGradient id="Degradado_sin_nombre_5" x1="540.23" y1="262.73" x2="491.48" y2="48.97" gradientTransform="matrix(1, 0, 0, -1, 0, 596.32)" gradientUnits="userSpaceOnUse"><stop offset="0" stop-color="#fff"/><stop offset="1" stop-color="#fff" stop-opacity="0"/></linearGradient><linearGradient id="Degradado_sin_nombre_6" x1="587.64" y1="278.54" x2="570.48" y2="128.65" gradientTransform="matrix(1, 0, 0, -1, 0, 596.32)" gradientUnits="userSpaceOnUse"><stop offset="0" stop-color="#fff"/><stop offset="0.5" stop-color="#4ffff4" stop-opacity="0.1"/><stop offset="1" stop-color="#5ecfff" stop-opacity="0.6"/></linearGradient><mask id="mask" x="424.34" y="277.17" width="234.76" height="254.49" maskUnits="userSpaceOnUse"><g transform="translate(-36.06 0.6)"><g id="i"><path class="cls-1" d="M615.67,527.59a102,102,0,0,0-2.32-27.86c-12.51-59.07-68.35-124.45-124.74-146a101.64,101.64,0,0,0-27.16-6.65c-4.3-56.06,34.81-83.88,92.94-62.63,63.11,23.07,124.74,95.23,137.66,161.17,11.91,60.74-21.68,95-76.38,82Z"/></g></g></mask><linearGradient id="Degradado_sin_nombre_7" x1="566.47" y1="342.7" x2="591.84" y2="6.03" xlink:href="#Degradado_sin_nombre_5"/><radialGradient id="Degradado_sin_nombre_8" cx="274.46" cy="697.44" r="1" gradientTransform="matrix(164.53, -26.71, -27.44, -169.02, -25485.13, 125571.83)" gradientUnits="userSpaceOnUse"><stop offset="0.07" stop-color="#fff"/><stop offset="0.51" stop-color="#c173ff" stop-opacity="0.9"/><stop offset="1" stop-color="#0e26ff" stop-opacity="0"/></radialGradient><radialGradient id="Degradado_sin_nombre_9" cx="274.41" cy="696.54" r="1" gradientTransform="matrix(152.53, -178.71, -179.63, -153.31, 83734.13, 156207.66)" gradientUnits="userSpaceOnUse"><stop offset="0.07" stop-color="#8785ff"/><stop offset="1" stop-color="#3e0eff" stop-opacity="0"/></radialGradient><radialGradient id="Degradado_sin_nombre_10" cx="274.72" cy="695.71" r="1" gradientTransform="matrix(115.07, -168.62, -296.68, -202.47, 175207.97, 187750.51)" gradientUnits="userSpaceOnUse"><stop offset="0" stop-color="#3330b1"/><stop offset="1" stop-color="#0a0926"/></radialGradient><linearGradient id="Degradado_sin_nombre_11" x1="253.3" y1="437.67" x2="533.71" y2="109.4" gradientTransform="matrix(1, 0, 0, -1, 0, 596.32)" gradientUnits="userSpaceOnUse"><stop offset="0" stop-color="#8fbcff" stop-opacity="0.6"/><stop offset="1" stop-color="#8fbcff" stop-opacity="0"/></linearGradient><linearGradient id="Degradado_sin_nombre_12" x1="310.85" y1="370.3" x2="674.42" y2="-55.34" xlink:href="#Degradado_sin_nombre_11"/><linearGradient id="Degradado_sin_nombre_13" x1="177.39" y1="526.55" x2="561.75" y2="76.57" gradientTransform="matrix(1, 0, 0, -1, 0, 596.32)" gradientUnits="userSpaceOnUse"><stop offset="0" stop-color="#fff" stop-opacity="0.6"/><stop offset="0.34" stop-color="#8fbcff" stop-opacity="0.6"/><stop offset="1" stop-color="#8fbcff" stop-opacity="0"/></linearGradient><linearGradient id="Degradado_sin_nombre_14" x1="419.72" y1="497.24" x2="456.12" y2="339.58" gradientTransform="matrix(1, 0, 0, -1, 0, 596.32)" gradientUnits="userSpaceOnUse"><stop offset="0" stop-color="#ff48d7"/><stop offset="0.23" stop-color="#fff" stop-opacity="0.77"/><stop offset="1" stop-color="#ff48d7" stop-opacity="0"/></linearGradient><linearGradient id="Degradado_sin_nombre_15" x1="221.71" y1="474.66" x2="499.98" y2="148.88" xlink:href="#Degradado_sin_nombre_11"/><linearGradient id="Degradado_sin_nombre_16" x1="598.32" y1="22.46" x2="633.34" y2="19.71" gradientTransform="matrix(1, 0, 0, -1, 0, 596.32)" gradientUnits="userSpaceOnUse"><stop offset="0" stop-color="#6083ff"/><stop offset="1" stop-color="#0c1e5e" stop-opacity="0"/></linearGradient><linearGradient id="Degradado_sin_nombre_17" x1="615.23" y1="39.1" x2="586.44" y2="-15.61" gradientTransform="matrix(1, 0, 0, -1, 0, 596.32)" gradientUnits="userSpaceOnUse"><stop offset="0.17" stop-color="#3d3ba9"/><stop offset="0.54" stop-color="#ff7be2" stop-opacity="0.8"/><stop offset="0.79" stop-color="#fff"/></linearGradient><linearGradient id="Degradado_sin_nombre_18" x1="574.91" y1="-1.52" x2="626.47" y2="15.31" gradientTransform="matrix(1, 0, 0, -1, 0, 596.32)" gradientUnits="userSpaceOnUse"><stop offset="0" stop-color="#3ddcff"/><stop offset="0.43" stop-color="#9d50ff" stop-opacity="0"/><stop offset="0.98" stop-color="#3ddcff"/></linearGradient><linearGradient id="Degradado_sin_nombre_19" x1="402.52" y1="258.37" x2="424.62" y2="256.63" xlink:href="#Degradado_sin_nombre_16"/><linearGradient id="Degradado_sin_nombre_20" x1="413.2" y1="268.87" x2="395.03" y2="234.34" xlink:href="#Degradado_sin_nombre_17"/><linearGradient id="Degradado_sin_nombre_21" x1="387.75" y1="243.24" x2="420.29" y2="253.86" gradientTransform="matrix(1, 0, 0, -1, 0, 596.32)" gradientUnits="userSpaceOnUse"><stop offset="0" stop-color="#3ddcff"/><stop offset="0.43" stop-color="#9d50ff" stop-opacity="0.5"/><stop offset="0.98" stop-color="#3ddcff"/></linearGradient><linearGradient id="Degradado_sin_nombre_22" x1="284.94" y1="403.5" x2="321.49" y2="400.86" xlink:href="#Degradado_sin_nombre_16"/><linearGradient id="Degradado_sin_nombre_23" x1="302.47" y1="420.96" x2="272.81" y2="363.69" xlink:href="#Degradado_sin_nombre_17"/><linearGradient id="Degradado_sin_nombre_24" x1="260.68" y1="378.32" x2="314.35" y2="396.23" xlink:href="#Degradado_sin_nombre_21"/><linearGradient id="Degradado_sin_nombre_25" x1="429.67" y1="85.53" x2="453.34" y2="84.09" gradientTransform="matrix(1, 0, 0, -1, 0, 596.32)" gradientUnits="userSpaceOnUse"><stop offset="0" stop-color="#6587ff"/><stop offset="1" stop-color="#d8e0ff" stop-opacity="0.9"/></linearGradient><linearGradient id="Degradado_sin_nombre_26" x1="420.46" y1="67.31" x2="438.13" y2="36.06" gradientTransform="matrix(1, 0, 0, -1, 0, 596.32)" gradientUnits="userSpaceOnUse"><stop offset="0.14" stop-color="#fff"/><stop offset="0.28" stop-color="#89f8ff" stop-opacity="0.94"/><stop offset="0.65" stop-color="#71f6ff" stop-opacity="0.92"/><stop offset="1" stop-color="#4a72ff" stop-opacity="0.9"/></linearGradient><linearGradient id="Degradado_sin_nombre_27" x1="404.68" y1="84.31" x2="420.72" y2="57.34" xlink:href="#Degradado_sin_nombre_17"/><linearGradient id="Degradado_sin_nombre_28" x1="422.55" y1="100.17" x2="430.68" y2="81.7" xlink:href="#Degradado_sin_nombre_26"/><linearGradient id="Degradado_sin_nombre_29" x1="433.87" y1="80.86" x2="426.96" y2="61.1" xlink:href="#Degradado_sin_nombre_26"/><linearGradient id="Degradado_sin_nombre_30" x1="445.74" y1="68.96" x2="453.06" y2="54.9" xlink:href="#Degradado_sin_nombre_26"/><linearGradient id="Degradado_sin_nombre_31" x1="423.61" y1="26.92" x2="432.66" y2="76.12" xlink:href="#Degradado_sin_nombre_18"/><linearGradient id="Degradado_sin_nombre_32" x1="426.12" y1="103.55" x2="422.59" y2="33.52" xlink:href="#Degradado_sin_nombre_17"/><linearGradient id="Degradado_sin_nombre_33" x1="450.01" y1="89.02" x2="454.76" y2="59.68" xlink:href="#Degradado_sin_nombre_26"/><linearGradient id="Degradado_sin_nombre_34" x1="430.53" y1="87.27" x2="445.94" y2="100.43" gradientTransform="matrix(1, 0, 0, -1, 0, 596.32)" gradientUnits="userSpaceOnUse"><stop offset="0" stop-color="#3e5abe"/><stop offset="1" stop-color="#3e5abe" stop-opacity="0"/></linearGradient><linearGradient id="Degradado_sin_nombre_35" x1="414.13" y1="442.78" x2="374.01" y2="499.87" gradientTransform="matrix(1, 0, 0, -1, 0, 596.32)" gradientUnits="userSpaceOnUse"><stop offset="0" stop-color="#fff"/><stop offset="0.23" stop-color="#47ffde" stop-opacity="0.8"/><stop offset="1" stop-color="#6d61ff" stop-opacity="0.5"/></linearGradient><linearGradient id="Degradado_sin_nombre_36" x1="468.98" y1="481.32" x2="428.86" y2="538.41" xlink:href="#Degradado_sin_nombre_35"/><linearGradient id="Degradado_sin_nombre_37" x1="358.12" y1="509.36" x2="378.12" y2="468.83" xlink:href="#Degradado_sin_nombre_35"/><linearGradient id="Degradado_sin_nombre_38" x1="402.67" y1="461.04" x2="298.41" y2="403.02" gradientTransform="matrix(1, 0, 0, -1, 0, 596.32)" gradientUnits="userSpaceOnUse"><stop offset="0" stop-color="#6d61ff"/><stop offset="1" stop-color="#47ffde"/></linearGradient><radialGradient id="Degradado_sin_nombre_39" cx="279.9" cy="697.41" r="1" gradientTransform="matrix(-46.44, -83.45, -47.77, 26.58, 46696.03, 4965.93)" xlink:href="#Degradado_sin_nombre_38"/><linearGradient id="Degradado_sin_nombre_40" x1="351.31" y1="398.64" x2="311.19" y2="455.73" xlink:href="#Degradado_sin_nombre_35"/><linearGradient id="Degradado_sin_nombre_41" x1="387.86" y1="488.77" x2="470.7" y2="446.09" gradientTransform="matrix(1, 0, 0, -1, 0, 596.32)" gradientUnits="userSpaceOnUse"><stop offset="0.07" stop-color="#4b86fa" stop-opacity="0.8"/><stop offset="0.79" stop-color="#fca6ef" stop-opacity="0.8"/><stop offset="1" stop-color="#fff"/></linearGradient><linearGradient id="Degradado_sin_nombre_42" x1="362.79" y1="392.95" x2="311.5" y2="395.23" gradientTransform="matrix(1, 0, 0, -1, 0, 596.32)" gradientUnits="userSpaceOnUse"><stop offset="0" stop-color="#7bffe7" stop-opacity="0.8"/><stop offset="1" stop-color="#322994" stop-opacity="0.5"/></linearGradient><linearGradient id="Degradado_sin_nombre_43" x1="334.35" y1="436.65" x2="300.31" y2="442.55" gradientTransform="matrix(1, 0, 0, -1, 0, 596.32)" gradientUnits="userSpaceOnUse"><stop offset="0" stop-color="#7bffe7" stop-opacity="0.9"/><stop offset="1" stop-color="#322994" stop-opacity="0.5"/></linearGradient><linearGradient id="Degradado_sin_nombre_44" x1="404.65" y1="377.3" x2="342.97" y2="399.93" gradientTransform="matrix(1, 0, 0, -1, 0, 596.32)" gradientUnits="userSpaceOnUse"><stop offset="0" stop-color="#fff"/><stop offset="0.59" stop-color="#47ffde" stop-opacity="0.9"/><stop offset="1" stop-color="#6d61ff" stop-opacity="0.5"/></linearGradient><linearGradient id="Degradado_sin_nombre_45" x1="321.91" y1="490.96" x2="353.07" y2="472.97" gradientTransform="matrix(1, 0, 0, -1, 0, 596.32)" gradientUnits="userSpaceOnUse"><stop offset="0" stop-color="#0a3892"/><stop offset="0.54" stop-color="#29b2ed" stop-opacity="0.8"/><stop offset="0.97" stop-color="#fff"/></linearGradient><linearGradient id="Degradado_sin_nombre_46" x1="330.6" y1="450.75" x2="328.71" y2="483.39" gradientTransform="matrix(1, 0, 0, -1, 0, 596.32)" gradientUnits="userSpaceOnUse"><stop offset="0" stop-color="#ff439d"/><stop offset="1" stop-color="#ff43d6" stop-opacity="0"/></linearGradient><linearGradient id="Degradado_sin_nombre_47" x1="461.84" y1="439.36" x2="423.39" y2="476.29" xlink:href="#Degradado_sin_nombre_41"/><linearGradient id="Degradado_sin_nombre_48" x1="374.45" y1="397.01" x2="446.6" y2="549.36" xlink:href="#Degradado_sin_nombre_41"/></defs><circle class="cls-2" cx="655.26" cy="381.76" r="280"/><path class="cls-3" d="M695.27,467.38a176.26,176.26,0,1,1-161.9-189.54,176.26,176.26,0,0,1,161.9,189.54Z" transform="translate(-36.06 0.6)"/><path class="cls-4" d="M657.35,462.14c.77,69.08-53.82,115.71-121.93,104.15s-124-76.94-124.74-146S464.5,304.54,532.61,316.11,656.57,393.05,657.35,462.14Z" transform="translate(-36.06 0.6)"/><path class="cls-5" d="M647.44,508.23c14.2,78.39-35.26,120.64-110.47,94.36S389.28,491.45,375.08,413.05s35.25-120.64,110.46-94.36,147.7,111.14,161.9,189.54Z" transform="translate(-36.06 0.6)"/><path class="cls-6" d="M647.08,508.29c7.09,39.12-1.72,69.13-21.58,86.1s-50.88,21-88.41,7.85-74.4-40.85-103.67-75.11-50.9-75-58-114.14,1.72-69.13,21.58-86.1,50.88-21,88.41-7.86,74.41,40.86,103.68,75.12,50.9,75,58,114.14Z" transform="translate(-36.06 0.6)"/><path class="cls-7" d="M615.67,527.59a102,102,0,0,0-2.32-27.86c-12.51-59.07-68.35-124.45-124.74-146a101.64,101.64,0,0,0-27.16-6.65c-4.3-56.06,34.81-83.88,92.94-62.63,63.11,23.07,124.74,95.23,137.66,161.17,11.91,60.74-21.68,95-76.38,82Z" transform="translate(-36.06 0.6)"/><g class="cls-8"><path class="cls-9" d="M613.35,499.73l-.71.15Zm2.32,27.86-.72-.05,0,.61.59.15.17-.71Zm-127-173.89.25-.68Zm-27.17-6.65-.72.05,0,.61.61.06.06-.72Zm92.94-62.63-.25.68ZM692.05,445.59l-.71.14Zm-79.41,54.29A101,101,0,0,1,615,527.54l1.44.1a103,103,0,0,0-2.33-28.06l-1.42.3ZM488.36,354.37c28,10.74,56,32.4,78.53,58.76s39.53,57.36,45.75,86.75l1.42-.3c-6.29-29.68-23.45-60.9-46.07-87.39S517.21,363.87,488.87,353l-.51,1.35Zm-27-6.6a101.34,101.34,0,0,1,27,6.6l.51-1.35a102.86,102.86,0,0,0-27.35-6.69l-.13,1.44Zm.78-.78c-2.13-27.86,6.52-48.54,22.75-59.65s40.29-12.82,69.22-2.24l.5-1.35c-29.19-10.68-53.77-9.09-70.54,2.4s-25.53,32.75-23.37,61l1.44-.11Zm92-61.89c31.41,11.48,62.5,35.2,87.35,64.3s43.42,63.51,49.85,96.33l1.42-.28c-6.49-33.12-25.2-67.76-50.17-97s-56.25-53.13-88-64.71l-.5,1.35Zm137.2,160.63c5.93,30.23.5,53.71-13,68S643,533.36,615.84,526.89l-.34,1.41c27.52,6.54,49.89,1.22,63.86-13.56s19.38-38.79,13.4-69.29Z" transform="translate(-36.06 0.6)"/></g><ellipse class="cls-10" cx="517.41" cy="361.76" rx="209.68" ry="215.27" transform="translate(-147.04 423.34) rotate(-40.5)"/><path class="cls-11" d="M262.59,169.52C386.77,63.44,573.73,78.47,680.16,203.07S772.21,514.69,648,620.76s-311.14,91-417.58-33.55-92-311.62,32.14-417.69Z" transform="translate(-36.06 0.6)"/><path class="cls-12" d="M613.35,499.72c12.5,59.07-23.07,89.45-79.45,67.86s-112.23-87-124.73-146,23.06-89.45,79.44-67.86,112.23,87,124.74,146Z" transform="translate(-36.06 0.6)"/><path class="cls-13" d="M406.71,798.72C310,812.57,234.18,787.24,189.77,735.25S132.19,604.44,161,511.05s94.12-183.59,176.44-253.91S519.06,136.41,615.81,122.56,788.33,134,832.75,186s57.58,130.81,28.78,224.2S767.41,593.82,685.08,664.14,503.45,784.86,406.71,798.72Z" transform="translate(-36.06 0.6)"/><path class="cls-14" d="M395.73,786.26c-96.86,13.87-172.83-11.48-217.38-63.64S120.64,591.47,149.48,498s94.21-183.76,176.59-254.13S507.83,123,604.69,109.15s172.82,11.48,217.37,63.63,57.71,131.16,28.87,224.65S756.72,581.2,674.34,651.57,492.58,772.39,395.73,786.26Z" transform="translate(-36.06 0.6)"/><path class="cls-15" d="M385.75,844.86c-113.28,14-202.94-17.78-256.41-80.38S58.49,608.36,90,498.66s106-214.73,201-295.84S501.38,64.55,614.66,50.54,817.6,68.32,871.07,130.92s70.85,156.13,39.31,265.82-106,214.73-201,295.84S499,830.85,385.75,844.86Z" transform="translate(-36.06 0.6)"/><path class="cls-16" d="M385.75,844.86c-113.28,14-202.94-17.78-256.41-80.38S58.49,608.36,90,498.66s106-214.73,201-295.84S501.38,64.55,614.66,50.54,817.6,68.32,871.07,130.92s70.85,156.13,39.31,265.82-106,214.73-201,295.84S499,830.85,385.75,844.86Z" transform="translate(-36.06 0.6)"/><path class="cls-17" d="M375.72,833.08C258,841.91,162.54,803.35,103.26,733.94S20.81,564.2,47.93,449.34s99.41-222.48,194.36-303.59S454.82,10.08,572.52,1.25,785.7,31,845,100.38,927.43,270.13,900.31,385,800.9,607.47,706,688.58,493.42,824.24,375.72,833.08Z" transform="translate(-36.06 0.6)"/><path class="cls-18" d="M347.14,374.24l.36-4.55,4.56.35-.36,4.56Z" transform="translate(-36.06 0.6)"/><path class="cls-19" d="M347.33,189.76l.15-1.88,1.88.15-.15,1.88ZM719.12,155l-.19,2.46,2.47.2.19-2.47ZM415.27,140.31l.22-2.85,2.84.23-.22,2.84Zm8.18,41.56.13-1.69,1.69.13-.13,1.69Zm7.19,270.05.36-4.56,4.56.36-.36,4.56Z" transform="translate(-36.06 0.6)"/><path class="cls-20" d="M298,533.2l.36-4.56,4.56.36-.36,4.56Z" transform="translate(-36.06 0.6)"/><path class="cls-21" d="M261.06,392.71l.25-3.19,3.18.25-.25,3.19Z" transform="translate(-36.06 0.6)"/><path class="cls-20" d="M635.92,596.67l.47-5.92,5.93.46-.47,5.93Z" transform="translate(-36.06 0.6)"/><path class="cls-22" d="M903.47,486.68l.5-6.32,6.32.49-.49,6.33Zm52.34-133.34,1-12.78,12.78,1-1,12.78ZM810.34,169.06l-.47,5.95,6,.47.46-5.95Zm149.83,1.52.5-6.33,6.32.5-.49,6.32Zm22.65,432.17.5-6.32,6.32.49-.49,6.33Z" transform="translate(-36.06 0.6)"/><path class="cls-20" d="M798.38,715.76l.49-6.32,6.33.49-.5,6.33ZM830.23,561l.35-4.43L835,557l-.35,4.43Zm18.26,55.49.65-8.24,8.24.65-.65,8.24Z" transform="translate(-36.06 0.6)"/><path class="cls-22" d="M698.93,351.72l-5.21-1.55,1.55-5.21,5.21,1.55Z" transform="translate(-36.06 0.6)"/><path class="cls-23" d="M595,279.44l-4.24-.33.34-4.24,4.24.33Z" transform="translate(-36.06 0.6)"/><path class="cls-24" d="M416.4,372.65l4.9,1.46,1.46-4.9-4.9-1.46Z" transform="translate(-36.06 0.6)"/><path class="cls-22" d="M444.56,247.55,439.35,246l1.55-5.21,5.21,1.56ZM810.3,306.13l-5.21-1.55,1.55-5.21,5.21,1.55Z" transform="translate(-36.06 0.6)"/><path class="cls-20" d="M612,160.85l-3.92-.31.31-3.92,3.92.31ZM748,426.34l-3.64-1.08,1.09-3.65,3.64,1.09ZM797.71,421l-6.78-2,2-6.78,6.77,2Z" transform="translate(-36.06 0.6)"/><path class="cls-25" d="M385.87,379.21l.24-3,3,.24-.24,3Z" transform="translate(-36.06 0.6)"/><path class="cls-26" d="M359.1,580.05l.26-3.42,3.42.27-.26,3.42ZM244.16,340l-.29,3.77,3.77.3.3-3.78Zm75.76-53.66.31-4,4,.32-.31,4Z" transform="translate(-36.06 0.6)"/><path class="cls-27" d="M614.73,444.13l.32-4,4,.32-.31,4ZM509.89,492.31l.18-2.21,2.2.18-.17,2.2Z" transform="translate(-36.06 0.6)"/><path class="cls-20" d="M437.47,628.6l-2.07-3.46,3.46-2.07,2.07,3.47Z" transform="translate(-36.06 0.6)"/><path class="cls-28" d="M396.23,536.23l.22-2.8,2.8.22-.22,2.8Z" transform="translate(-36.06 0.6)"/><path class="cls-29" d="M423.86,558.77l.59-7.56,7.56.6-.59,7.56Z" transform="translate(-36.06 0.6)"/><g class="cls-30"><path class="cls-25" d="M233.81,271.29l.24-3,3,.24-.24,3Z" transform="translate(-36.06 0.6)"/><path class="cls-26" d="M207,472.14l.27-3.42,3.42.27-.27,3.42ZM92.1,232.07l-.3,3.77,3.78.3.3-3.78Zm75.75-53.67.31-4,4,.31-.31,4Z" transform="translate(-36.06 0.6)"/><path class="cls-27" d="M462.67,336.22l.32-4,4,.32-.32,4ZM357.83,384.39l.17-2.2,2.21.17-.18,2.2Z" transform="translate(-36.06 0.6)"/><path class="cls-20" d="M285.4,520.68l-2.06-3.46,3.46-2.06,2.07,3.46Z" transform="translate(-36.06 0.6)"/><path class="cls-28" d="M244.16,428.32l.22-2.81,2.81.22-.22,2.81Z" transform="translate(-36.06 0.6)"/><path class="cls-29" d="M271.79,450.86l.59-7.56,7.56.59-.59,7.56Z" transform="translate(-36.06 0.6)"/></g><path class="cls-31" d="M605.09,584.41l-5.39-28.06,26.87,9.71,5.4,28.06Z" transform="translate(-36.06 0.6)"/><path class="cls-32" d="M626.57,566.06l-26.87-9.71L578,607.58l48.6-41.52Z" transform="translate(-36.06 0.6)"/><path class="cls-33" d="M626.57,566.07l5.43,28-54,13.46Z" transform="translate(-36.06 0.6)"/><path class="cls-34" d="M406.8,344.61l-3.41-17.71,17,6.13,3.41,17.71Z" transform="translate(-36.06 0.6)"/><path class="cls-35" d="M420.36,333l-17-6.13-13.71,32.33Z" transform="translate(-36.06 0.6)"/><path class="cls-36" d="M420.35,333l3.43,17.71-34.1,8.49Z" transform="translate(-36.06 0.6)"/><path class="cls-37" d="M292.08,203.79l-5.82-29.24,28.1,9.95,5.82,29.24-28.1-10Z" transform="translate(-36.06 0.6)"/><path class="cls-38" d="M314.36,184.5l-28.1-9.95-22.32,53.59Z" transform="translate(-36.06 0.6)"/><path class="cls-39" d="M314.36,184.5l5.85,29.23-56.27,14.41Z" transform="translate(-36.06 0.6)"/><path class="cls-40" d="M436.27,499l-1.71,13.42,10,11.39,12.17-1.26-5.18-15.2Z" transform="translate(-36.06 0.6)"/><path class="cls-41" d="M401.77,549.22l36.74-9.9,16.6-2.28Z" transform="translate(-36.06 0.6)"/><path class="cls-42" d="M401.77,549.22l17.75-31.66L422,499.08l-20.26,50.14Z" transform="translate(-36.06 0.6)"/><path class="cls-43" d="M422,499.09l-2.51,18.48,15-5.1L436.27,499l-14.24,0Z" transform="translate(-36.06 0.6)"/><path class="cls-44" d="M438.51,539.32l-19-21.75,15-5.11,10,11.39-6,15.47Z" transform="translate(-36.06 0.6)"/><path class="cls-45" d="M438.51,539.32l16.6-2.28,1.61-14.45-12.18,1.26-6,15.47Z" transform="translate(-36.06 0.6)"/><path class="cls-46" d="M401.77,549.22l44.86-36.68,8.48,24.5Z" transform="translate(-36.06 0.6)"/><path class="cls-47" d="M401.77,549.22l44.85-36.68L422,499.08l-20.26,50.14Z" transform="translate(-36.06 0.6)"/><path class="cls-48" d="M455.11,537l-8.48-24.5,4.91-5.16,5.18,15.22L455.11,537Z" transform="translate(-36.06 0.6)"/><path class="cls-49" d="M422,499.09l24.6,13.45,4.92-5.15L436.27,499l-14.25,0Z" transform="translate(-36.06 0.6)"/><path class="cls-50" d="M401.36,103.78,428.75,153l-43-8.29Z" transform="translate(-36.06 0.6)"/><path class="cls-51" d="M401.36,103.78,428.76,153,508.7,76.28Z" transform="translate(-36.06 0.6)"/><path class="cls-52" d="M335.13,111.2l50.61,33.51,15.62-40.93-66.23,7.42Z" transform="translate(-36.06 0.6)"/><path class="cls-53" d="M387.54,205.37l-1.8-60.66L335.13,111.2l-28,16.25,8.18,56.44L359,220.59Z" transform="translate(-36.06 0.6)"/><path class="cls-54" d="M364.23,188.91l48.33,14.68L428.76,153l-27.4-49.22-51.53-12.9-13,48.8,27.39,49.23Z" transform="translate(-36.06 0.6)"/><path class="cls-55" d="M336.84,139.68l27.4,49.23-48.91-5Z" transform="translate(-36.06 0.6)"/><path class="cls-56" d="M336.84,139.68l27.4,49.23L508.7,76.28l-171.86,63.4Z" transform="translate(-36.06 0.6)"/><path class="cls-57" d="M359,220.59l5.26-31.68-48.91-5L359,220.59Z" transform="translate(-36.06 0.6)"/><path class="cls-58" d="M307.15,127.45l29.69,12.23-21.51,44.21-8.18-56.44Z" transform="translate(-36.06 0.6)"/><path class="cls-59" d="M359,220.59l5.26-31.68,48.32,14.69-53.58,17Z" transform="translate(-36.06 0.6)"/><path class="cls-60" d="M307.15,127.45l29.69,12.23,13-48.8Z" transform="translate(-36.06 0.6)"/><path class="cls-61" d="M307.15,127.45l29.69,12.23,13-48.8Z" transform="translate(-36.06 0.6)"/><path class="cls-62" d="M508.7,76.28,364.24,188.91l48.32,14.69Z" transform="translate(-36.06 0.6)"/><path class="cls-63" d="M508.7,76.28l-171.86,63.4,13-48.81L508.7,76.28Z" transform="translate(-36.06 0.6)"/></svg>